<svg xmlns="http://www.w3.org/2000/svg" width="741" height="336" viewBox="0 0 741 336" version="1.1"><path d="M 341.750 122.944 C 334.188 137.739, 328 150.104, 328 150.422 C 328 150.740, 340.600 151, 356 151 C 371.400 151, 384 150.772, 384 150.493 C 384 149.187, 356.901 96.003, 356.246 96.022 C 355.836 96.035, 349.313 108.150, 341.750 122.944 M 96.385 104.617 C 90.299 106.776, 84.618 112.136, 82.023 118.169 C 80.172 122.471, 79.850 124.656, 80.247 130.211 C 81.100 142.134, 86.166 147.188, 106.083 155.993 C 119.086 161.741, 123.079 164.540, 125.472 169.583 C 131.665 182.634, 116.799 193.681, 99.503 188.879 C 93.743 187.280, 87.263 180.495, 86.411 175.171 C 85.673 170.555, 85.637 170.534, 81.095 172.117 C 78.171 173.136, 77.950 173.506, 78.552 176.367 C 80.429 185.287, 86.008 191.729, 94.688 195 C 99.528 196.823, 102.037 197.125, 109.686 196.801 C 117.771 196.460, 119.684 195.999, 125.642 192.957 C 137.393 186.956, 142.420 177.267, 139.983 165.314 C 138.214 156.637, 132.025 150.982, 117.373 144.656 C 103.776 138.785, 99.773 136.149, 97.643 131.660 C 92.191 120.171, 100.296 109.572, 114.573 109.522 C 122.569 109.493, 128.012 112.847, 130.488 119.328 C 131.838 122.865, 132.572 123.663, 134.107 123.262 C 137.076 122.485, 137.260 121.370, 135.178 116.762 C 132.623 111.107, 127.583 106.553, 121.715 104.596 C 115.738 102.603, 102.033 102.614, 96.385 104.617 M 149 107 L 149 110 161.500 110 L 174 110 174 152.500 L 174 195 181 195 L 188 195 188 152.500 L 188 110 200.500 110 L 213 110 213 107 L 213 104 181 104 L 149 104 149 107 M 222 149.500 L 222 195 250 195 L 278 195 278 192 L 278 189 257 189 L 236 189 236 169.500 L 236 150 253.500 150 L 271 150 271 146.500 L 271 143 253.500 143 L 236 143 236 126.500 L 236 110 257 110 L 278 110 278 107 L 278 104 250 104 L 222 104 222 149.500 M 434 149.500 L 434 195 460.500 195 L 487 195 487 192 L 487 189 466.966 189 L 446.932 189 447.001 166.750 C 447.039 154.512, 447.054 135.387, 447.035 124.250 L 447 104 440.500 104 L 434 104 434 149.500 M 496 107 L 496 110 509 110 L 522 110 522 152.500 L 522 195 528.500 195 L 535 195 535 152.500 L 535 110 547.500 110 L 560 110 560 107 L 560 104 528 104 L 496 104 496 107 M 569.608 104.825 C 569.328 105.279, 569.189 125.641, 569.299 150.075 L 569.500 194.500 576.250 194.796 L 583 195.091 583 172.546 L 583 150 604.500 150 L 626 150 626 172.500 L 626 195 633 195 L 640 195 640 149.454 L 640 103.909 633.250 104.204 L 626.500 104.500 626.228 123.750 L 625.957 143 604.478 143 L 583 143 583 123.500 L 583 104 576.559 104 C 573.016 104, 569.889 104.371, 569.608 104.825 M 311.310 183.449 C 305.986 194.182, 301.976 203.309, 302.398 203.732 C 303.664 204.997, 368.006 204.853, 367.965 203.585 C 367.946 202.988, 362.354 193.950, 355.539 183.500 L 343.148 164.500 332.069 164.217 L 320.990 163.934 311.310 183.449 M 359 164.613 C 359 164.977, 364.423 173.945, 371.051 184.541 L 383.102 203.807 389.801 204.479 C 398.758 205.377, 409.140 204.798, 409.688 203.370 C 409.930 202.739, 405.889 193.735, 400.708 183.361 L 391.288 164.500 375.144 164.225 C 366.265 164.074, 359 164.248, 359 164.613 M 285 232.454 C 285 243.333, 285.115 244, 287 244 C 288.733 244, 289 243.333, 289 239 L 289 234 293 234 C 295.889 234, 297 233.583, 297 232.500 C 297 231.417, 295.889 231, 293 231 C 289.095 231, 289 230.917, 289 227.500 L 289 224 294.083 224 C 297.704 224, 299.048 223.640, 298.754 222.750 C 298.492 221.959, 295.893 221.392, 291.670 221.204 L 285 220.909 285 232.454 M 302 232.500 L 302 244 309 244 C 314.556 244, 316 243.690, 316 242.500 C 316 241.348, 314.722 241, 310.500 241 L 305 241 305 237.500 C 305 234.019, 305.024 234, 309.500 234 C 312.833 234, 314 233.611, 314 232.500 C 314 231.389, 312.833 231, 309.500 231 C 305.024 231, 305 230.981, 305 227.500 L 305 224 310 224 C 313.778 224, 315 223.633, 315 222.500 C 315 221.321, 313.611 221, 308.500 221 L 302 221 302 232.500 M 320 232.500 L 320 244 327 244 C 332.556 244, 334 243.690, 334 242.500 C 334 241.348, 332.722 241, 328.500 241 L 323 241 323 237.500 C 323 234.019, 323.024 234, 327.500 234 C 330.833 234, 332 233.611, 332 232.500 C 332 231.389, 330.833 231, 327.500 231 C 323.024 231, 323 230.981, 323 227.500 L 323 224 328 224 C 331.778 224, 333 223.633, 333 222.500 C 333 221.321, 331.611 221, 326.500 221 L 320 221 320 232.500 M 337.962 221.500 C 337.940 221.775, 337.904 226.838, 337.881 232.750 L 337.838 243.500 343.291 243.796 C 348.336 244.070, 348.942 243.858, 351.372 240.969 C 353.472 238.474, 354 236.802, 354 232.646 C 354 226.277, 352.173 223.420, 347.221 222.044 C 343.313 220.959, 338.027 220.648, 337.962 221.500 M 358.750 221.570 C 358.337 221.990, 358 227.208, 358 233.167 L 358 244 364.427 244 C 370.180 244, 371.072 243.723, 372.927 241.365 C 375.510 238.082, 375.518 236.929, 372.982 233.705 C 371.747 232.134, 371.359 230.896, 371.982 230.511 C 373.554 229.539, 373.185 224.398, 371.439 222.950 C 369.663 221.476, 359.887 220.413, 358.750 221.570 M 383 221.407 C 383 221.631, 381.225 226.834, 379.054 232.970 C 375.251 243.723, 375.187 244.114, 377.263 243.812 C 378.605 243.618, 379.637 242.557, 379.999 241 C 380.486 238.902, 381.242 238.451, 384.699 238.197 C 388.571 237.912, 388.858 238.077, 389.488 240.947 C 389.952 243.058, 390.751 244, 392.079 244 C 393.136 244, 394.007 243.662, 394.016 243.250 C 394.025 242.838, 392.355 237.662, 390.305 231.750 C 387.437 223.477, 386.166 221, 384.789 221 C 383.805 221, 383 221.183, 383 221.407 M 398.766 223.918 C 395.758 226.605, 395.500 227.315, 395.500 232.895 C 395.500 238.037, 395.878 239.326, 398 241.409 C 401.519 244.864, 406.927 245.690, 409.958 243.235 C 413.179 240.627, 411.867 238.506, 408.193 240.383 C 403.095 242.988, 399 239.485, 399 232.520 C 399 230.020, 399.755 228.154, 401.455 226.455 C 404.195 223.714, 405.212 223.508, 408.173 225.093 C 411.285 226.758, 412.736 224.629, 409.862 222.616 C 406.360 220.163, 402.456 220.621, 398.766 223.918 M 416 232.500 C 416 242.056, 416.254 244, 417.500 244 C 418.534 244, 419 242.962, 419 240.655 C 419 238.596, 419.758 236.624, 420.972 235.525 C 422.886 233.793, 422.997 233.836, 424.722 236.980 C 427.617 242.254, 429.499 244.246, 431.223 243.862 C 432.566 243.563, 432.185 242.378, 429.022 237.016 L 425.197 230.533 427.348 227.664 C 432.530 220.757, 432.424 221, 430.244 221 C 429.031 221, 426.427 223.208, 423.622 226.615 L 419 232.230 419 226.615 C 419 222.291, 418.655 221, 417.500 221 C 416.254 221, 416 222.944, 416 232.500 M 341 232.383 L 341 241 343.845 241 C 349.279 241, 352.188 234.779, 349.624 228.642 C 348.787 226.639, 347.517 224.994, 346.801 224.986 C 346.085 224.979, 344.488 224.701, 343.250 224.370 C 341.044 223.779, 341 223.936, 341 232.383 M 362 227.500 C 362 230.370, 362.372 231, 364.066 231 C 369.561 231, 371.967 226.698, 367.435 224.975 C 362.956 223.273, 362 223.717, 362 227.500 M 383.695 228.750 C 383.390 230.262, 382.835 232.287, 382.463 233.250 C 381.909 234.682, 382.340 235, 384.832 235 L 387.879 235 386.345 230.500 C 385.502 228.025, 384.686 226, 384.531 226 C 384.376 226, 384 227.238, 383.695 228.750 M 362 237.500 C 362 240.793, 362.195 241, 365.300 241 C 368.930 241, 371 239.513, 371 236.907 C 371 234.941, 369.032 234, 364.918 234 C 362.250 234, 362 234.300, 362 237.500" stroke="none" fill="#0e0e0e" fill-rule="evenodd"/></svg>